<svg width="176" height="175" viewBox="0 0 176 175" fill="none" xmlns="http://www.w3.org/2000/svg">
    <path d="M175.5 87.5C175.5 135.546 136.328 174.5 88 174.5C39.6724 174.5 0.5 135.546 0.5 87.5C0.5 39.4539 39.6724 0.5 88 0.5C136.328 0.5 175.5 39.4539 175.5 87.5Z" fill="#E0DAE7" stroke="#C1B5D0"/>
    <path fill-rule="evenodd" clip-rule="evenodd" d="M80.1554 85.4684C78.44 91.0355 75.0816 95.6565 70.7776 98.4845L70.998 100.964L70.9968 101.065L68.6702 121.5H53.9144L53.8531 121.071L51.0004 101.029L51.1061 98.5227C46.7804 95.7022 43.403 91.0735 41.6777 85.4917C41.6192 85.4972 41.56 85.5 41.5 85.5C40.3841 85.5 39.5 84.5247 39.5 83.3433V76.6577C39.5 75.8657 39.8972 75.166 40.4952 74.7907C41.4282 62.3095 50.193 52.5 60.9126 52.5C71.6032 52.5 80.3504 62.2566 81.3231 74.6895C82.0214 75.029 82.5 75.7873 82.5 76.6577V83.3433C82.5 84.5253 81.6172 85.5 80.5 85.5C80.3823 85.5 80.2672 85.4892 80.1554 85.4684Z" fill="#E7E9E9"/>
    <path fill-rule="evenodd" clip-rule="evenodd" d="M70.2579 99.1754C70.174 103.638 66.0612 108.217 61 108.217C55.9167 108.217 51.7902 103.598 51.7412 99.1172C49.1074 99.7848 45.0869 101.798 41.7686 105.163C38.5551 108.421 36 113.319 36 117.118V139.999H86V117.118C86 113.311 83.3898 108.405 80.1169 105.143C76.8441 101.881 72.9086 99.8949 70.2579 99.1754Z" fill="#0C5EA8"/>
    <path fill-rule="evenodd" clip-rule="evenodd" d="M51.5749 99.273C49.1489 100.154 45.0789 102.079 42 105.003C33 103 29 98.241 29 98.241C29 98.241 37.2919 90.153 37.2969 76.007V75.992C37.2969 59.428 46.2393 48 60.972 48C75.7067 48 84.6491 59.428 84.6491 75.992H84.7021C84.7021 90.148 93 98.241 93 98.241C93 98.241 89 103 80 105L79.9864 105.003C77.0126 102.297 72.6995 100.211 70.353 99.3287L70.3557 99.3278L70.2625 98.2792L70.3129 98.1923C74.7404 95.3602 78.1759 90.589 79.8322 84.8238C80.035 84.9365 80.264 85 80.5063 85C81.3355 85 82.0065 84.2599 82.0065 83.3433V76.6577C82.0065 75.8734 81.5153 75.2176 80.854 75.0446C80.8534 75.0356 80.8528 75.0265 80.8522 75.0175C59.9189 77.3534 52.3783 63.0009 51.7594 63C51.7594 63 44.8075 68 41.4849 73.9447C41.4849 73.9447 40.9785 75.0669 40.9761 75.1047C40.4073 75.3399 40.0015 75.9458 40.0015 76.6577V83.3433C40.0015 84.2599 40.6743 85 41.5017 85C41.6851 85 41.8607 84.9638 42.0231 84.8975C43.6976 90.6655 47.1549 95.4315 51.6032 98.245L51.6197 98.2792L51.5778 99.273H51.5749Z" fill="#4D3E55"/>
    <path fill-rule="evenodd" clip-rule="evenodd" d="M53.8504 79.8711C52.5582 79.9757 52.1966 77.9298 52.5859 76.5936C52.6591 76.3404 53.0869 75.1875 53.8441 75.1875C54.6005 75.1875 54.9345 75.8177 54.9809 75.9261C55.5373 77.2286 55.264 79.756 53.8504 79.8711" fill="#3E3832"/>
    <path fill-rule="evenodd" clip-rule="evenodd" d="M68.8371 79.8711C70.1293 79.9757 70.4909 77.9298 70.1016 76.5936C70.0284 76.3404 69.6006 75.1875 68.8434 75.1875C68.087 75.1875 67.753 75.8177 67.7066 75.9261C67.1502 77.2286 67.4235 79.756 68.8371 79.8711" fill="#3E3832"/>
    <path d="M61.8227 81.8874C62.5955 81.755 63.1232 81.8381 63.3122 82.0962C64.0255 83.0717 63.7974 84.1038 62.5735 84.951C61.93 85.3963 61.0443 85.553 60.5754 85.3221C60.3461 85.2092 60.0779 85.3245 59.9765 85.5796C59.875 85.8348 59.9786 86.1331 60.2079 86.246C60.9829 86.6277 62.1747 86.4168 63.0531 85.8089C64.7163 84.6576 65.0969 82.936 64.0163 81.4583C63.559 80.8338 62.7496 80.7064 61.6846 80.8888C61.4368 80.9313 61.2668 81.1892 61.3049 81.465C61.3431 81.7407 61.5749 81.9298 61.8227 81.8874Z" fill="#3E3832"/>
    <path d="M67.4107 88.5918C67.3653 88.688 67.2612 88.8721 67.094 89.1147C66.8108 89.5252 66.4553 89.9368 66.0235 90.3206C64.7367 91.4644 63.0618 92.1258 60.9302 92.0653C58.8517 92.0063 57.1843 91.3551 55.877 90.3051C55.397 89.9195 55.0008 89.5067 54.684 89.0951C54.4973 88.8524 54.3806 88.6684 54.3296 88.5725C54.2069 88.3419 53.9054 88.2469 53.6561 88.3604C53.4068 88.474 53.3041 88.7529 53.4268 88.9836C53.5007 89.1225 53.6445 89.3494 53.8644 89.6351C54.2253 90.104 54.6741 90.5717 55.2173 91.008C56.693 92.1934 58.579 92.9299 60.8993 92.9957C63.3156 93.0643 65.2473 92.3015 66.7206 90.9919C67.2133 90.554 67.6182 90.0852 67.9422 89.6153C68.1393 89.3296 68.2674 89.1029 68.3328 88.9643C68.444 88.7287 68.3277 88.4544 68.0731 88.3515C67.8184 88.2486 67.5219 88.3562 67.4107 88.5918Z" fill="#3E3832"/>
    <path fill-rule="evenodd" clip-rule="evenodd" d="M132.724 82.0404C131.009 87.8692 127.514 92.7136 123.005 95.651L123.231 98.166L123.229 98.2683L120.849 119H105.75L105.687 118.564L102.768 98.2326L102.876 95.6897C98.3661 92.7743 94.8636 87.9547 93.1303 82.1482C92.8174 82.3571 92.4466 82.4783 92.0465 82.4783C90.9046 82.4783 90 81.4889 90 80.2903V73.5078C90 72.3107 90.9023 71.3214 92.0421 71.3188C93.1126 58.7974 102.027 49 112.911 49C123.796 49 132.713 58.8016 133.781 71.3265C133.838 71.3214 133.895 71.3188 133.953 71.3188C135.097 71.3188 136 72.3085 136 73.5078V80.2903C136 81.4894 135.097 82.4783 133.953 82.4783C133.489 82.4783 133.065 82.3148 132.724 82.0404Z" fill="#E7E9E9"/>
    <path fill-rule="evenodd" clip-rule="evenodd" d="M122.999 96.3279C122.908 101.102 118.466 106 113 106C107.51 106 103.053 101.059 103 96.2656C100.156 96.9798 95.8139 99.1336 92.23 102.733C88.7595 106.219 86 111.458 86 115.523V140H140V115.523C140 111.45 137.181 106.202 133.646 102.712C130.112 99.2223 125.861 97.0976 122.999 96.3279Z" fill="#117938"/>
    <path fill-rule="evenodd" clip-rule="evenodd" d="M92.0001 72.9294C92.7095 73.9269 93.0004 74.0739 93.0004 73.973V71.9318C92.8532 66.3814 94.5373 64.2497 96.1623 62.2919C96.1623 62.2919 95.1748 66.5565 95.8617 65.6696C99.7512 60.6621 117.765 64.0917 121.502 57.6295C121.973 61.1871 117.257 62.2599 117.257 62.2599C121.016 62.9549 124.273 61.478 125.156 59.7242C125.446 61.1541 124.554 62.103 123.248 63.0808C127.868 62.2279 127.943 59.1243 127.943 59.1243C128.601 63.2408 132.662 62.8715 133.337 68.3992C134.013 72.9294 133.337 73.9479 134.013 73.9479C134.013 73.9479 135.013 72.9294 135.007 69.9361C135.007 53.2635 127.943 44 113.007 44C99.0825 44 91.0069 53.2635 91.0069 68.0843C90.9998 71.0082 92.0001 72.9294 92.0001 72.9294Z" fill="#D87F0A"/>
    <path fill-rule="evenodd" clip-rule="evenodd" d="M105.507 75.2965C104.129 75.4136 103.743 73.1221 104.158 71.6257C104.236 71.3421 104.693 70.0508 105.5 70.0508C106.307 70.0508 106.663 70.7566 106.713 70.878C107.306 72.3368 107.015 75.1676 105.507 75.2965" fill="#3E3832"/>
    <path fill-rule="evenodd" clip-rule="evenodd" d="M121.493 75.2965C122.871 75.4136 123.257 73.1221 122.842 71.6257C122.764 71.3421 122.307 70.0508 121.5 70.0508C120.693 70.0508 120.337 70.7566 120.287 70.878C119.694 72.3368 119.985 75.1676 121.493 75.2965" fill="#3E3832"/>
    <path d="M114.011 77.5554C114.835 77.4072 115.398 77.5002 115.6 77.7893C116.361 78.8819 116.117 80.0378 114.812 80.9867C114.125 81.4854 113.181 81.661 112.68 81.4024C112.436 81.2759 112.15 81.405 112.042 81.6908C111.933 81.9765 112.044 82.3107 112.288 82.4371C113.115 82.8645 114.386 82.6284 115.323 81.9476C117.097 80.658 117.503 78.7298 116.351 77.0748C115.863 76.3754 115 76.2327 113.864 76.437C113.599 76.4846 113.418 76.7735 113.459 77.0823C113.499 77.3912 113.747 77.603 114.011 77.5554Z" fill="#3E3832"/>
    <path d="M119.971 85.0629C119.923 85.1706 119.812 85.3768 119.634 85.6484C119.332 86.1082 118.952 86.5692 118.492 86.9991C117.119 88.2801 115.333 89.0209 113.059 88.9531C110.842 88.8871 109.063 88.1577 107.669 86.9817C107.157 86.5499 106.734 86.0875 106.396 85.6265C106.197 85.3547 106.073 85.1486 106.018 85.0413C105.887 84.7829 105.566 84.6766 105.3 84.8037C105.034 84.9308 104.924 85.2433 105.055 85.5016C105.134 85.6572 105.288 85.9114 105.522 86.2313C105.907 86.7565 106.386 87.2803 106.965 87.769C108.539 89.0966 110.551 89.9215 113.026 89.9952C115.603 90.072 117.664 89.2177 119.235 87.7509C119.761 87.2605 120.193 86.7354 120.538 86.2092C120.749 85.8892 120.885 85.6353 120.955 85.48C121.074 85.2162 120.95 84.9089 120.678 84.7937C120.406 84.6785 120.09 84.799 119.971 85.0629Z" fill="#3E3832"/>
    <path fill-rule="evenodd" clip-rule="evenodd" d="M105 87.213C105 85.4379 108.582 84.9988 113 84.9988C117.418 84.9988 121 85.4379 121 87.213C121 88.9882 118.788 92.6538 113 92.6538C107.212 92.6538 105 88.9882 105 87.213ZM112.761 82.9508C109.664 82.9508 108.019 83.8433 103.497 85.0944C97.0693 86.8723 94.1 81.8919 93.05 76.9988C92.4475 74.1912 92 75.3721 92 75.3721C92 94.5517 104.812 101.027 113.17 101.027C121.661 101.027 134 94.798 134 74.9988C134 74.5582 133.15 74.7751 133 75.3721C132.118 78.8811 133.113 87.8121 121.731 85.0944C117.746 83.4145 115.857 82.9508 112.761 82.9508Z" fill="#D87F0A"/>
    <path fill-rule="evenodd" clip-rule="evenodd" d="M97 128.987V137H79V128.987C79 126.695 81.9404 124.078 83.9091 123H92.0909C94.0775 124.097 97 126.721 97 128.987Z" fill="#117938"/>
    <path fill-rule="evenodd" clip-rule="evenodd" d="M91.9873 123.322C95.0627 122.239 97.5642 119.938 98.9128 116.998C98.9417 116.999 98.9708 117 99 117C100.105 117 101 116.105 101 115V113C101 112.25 100.588 111.597 99.9772 111.255C99.5923 104.974 94.3771 100 88 100C81.6229 100 76.4077 104.974 76.0228 111.255C75.4124 111.597 75 112.25 75 113V115C75 116.105 75.8954 117 77 117C77.0292 117 77.0583 116.999 77.0872 116.998C78.4358 119.938 80.9373 122.239 84.0127 123.322C84.1766 125.38 85.8991 127 88 127C90.1009 127 91.8234 125.38 91.9873 123.322Z" fill="#E7E9E9"/>
    <path fill-rule="evenodd" clip-rule="evenodd" d="M84.8 117.332C84.8 118.713 83.7257 119.832 82.4005 119.832C81.0748 119.832 80 118.713 80 117.332C80 115.951 81.0748 114.832 82.4005 114.832C83.7257 114.832 84.8 115.951 84.8 117.332" fill="#E3B0A8"/>
    <path fill-rule="evenodd" clip-rule="evenodd" d="M96.0002 117.332C96.0002 118.713 94.9259 119.832 93.6007 119.832C92.275 119.832 91.2002 118.713 91.2002 117.332C91.2002 115.951 92.275 114.832 93.6007 114.832C94.9259 114.832 96.0002 115.951 96.0002 117.332" fill="#E3B0A8"/>
    <path d="M88.6593 113.613C88.4431 113.66 88.231 113.516 88.1856 113.291C88.1402 113.065 88.2786 112.845 88.4948 112.797C89.0327 112.679 89.4824 112.77 89.7299 113.203C90.2109 114.044 90.0433 115.014 89.2849 115.686C88.8441 116.076 88.2254 116.216 87.7931 115.944C87.6041 115.825 87.5436 115.569 87.6579 115.372C87.7722 115.175 88.0182 115.112 88.2072 115.231C88.3018 115.29 88.563 115.231 88.7667 115.051C89.2312 114.64 89.3215 114.117 89.0426 113.629C89.0164 113.583 88.9005 113.56 88.6593 113.613Z" fill="#3E3832"/>
    <path d="M81.2117 110.768C81.1582 110.545 81.2885 110.318 81.5028 110.263C81.7171 110.207 81.9343 110.342 81.9879 110.566C82.214 111.508 82.6065 111.917 83.1998 111.917C83.7931 111.917 84.1856 111.508 84.4117 110.566C84.4653 110.342 84.6825 110.207 84.8968 110.263C85.1111 110.318 85.2414 110.545 85.1879 110.768C84.8806 112.048 84.2065 112.75 83.1998 112.75C82.1931 112.75 81.519 112.048 81.2117 110.768Z" fill="#3E3832"/>
    <path d="M90.8118 110.768C90.7583 110.545 90.8886 110.318 91.1029 110.263C91.3172 110.207 91.5344 110.342 91.588 110.566C91.8141 111.508 92.2066 111.917 92.7999 111.917C93.3932 111.917 93.7857 111.508 94.0118 110.566C94.0654 110.342 94.2826 110.207 94.4969 110.263C94.7112 110.318 94.8415 110.545 94.788 110.768C94.4807 112.048 93.8066 112.75 92.7999 112.75C91.7932 112.75 91.1191 112.048 90.8118 110.768Z" fill="#3E3832"/>
    <path d="M87.3909 121.093C87.1987 121.09 87.0014 121.086 86.8002 121.086C84.812 121.086 83.2002 119.793 83.2002 118.197C83.2002 116.601 84.266 115.668 85.6002 115.668C85.9598 115.668 86.3194 115.814 86.7153 115.975C87.2002 116.171 87.7396 116.39 88.4002 116.39C89.0608 116.39 89.6002 116.171 90.0851 115.975C90.481 115.814 90.8406 115.668 91.2002 115.668C92.5344 115.668 93.6002 116.601 93.6002 118.197C93.6002 119.793 91.9884 121.086 90.0002 121.086C89.799 121.086 89.6017 121.09 89.4095 121.093C89.0526 121.098 88.7135 121.104 88.4002 121.088C88.0869 121.104 87.7478 121.098 87.3909 121.093Z" fill="#6AB889"/>
    <path fill-rule="evenodd" clip-rule="evenodd" d="M88.4001 120.667C89.9465 120.667 91.2001 119.734 91.2001 118.583C91.2001 117.433 89.9465 116.5 88.4001 116.5C86.8537 116.5 85.6001 117.433 85.6001 118.583C85.6001 119.734 86.8537 120.667 88.4001 120.667Z" fill="white"/>
    <path fill-rule="evenodd" clip-rule="evenodd" d="M90.8 119.003C90.8 118.772 90.6209 118.586 90.4 118.586H86.4C86.1791 118.586 86 118.772 86 119.003V121.317C86 122.656 87.0998 123.586 88.4 123.586C89.6111 123.586 90.8 122.485 90.8 121.317V119.003ZM86.8 121.317V119.419H90V121.317C90 122.002 89.1889 122.753 88.4 122.753C87.5091 122.753 86.8 122.153 86.8 121.317Z" fill="white"/>
    <path d="M84.7292 101.271C84.8027 101.005 85.0781 100.849 85.3442 100.922C85.6104 100.996 85.7666 101.271 85.6931 101.537C85.5929 101.9 85.69 102.059 86.3382 102.643C86.9965 103.236 87.1492 104.012 86.7837 104.85C86.6733 105.103 86.3786 105.219 86.1255 105.108C85.8724 104.998 85.7567 104.703 85.8671 104.45C86.0635 104 86.0017 103.686 85.6691 103.386C84.7575 102.565 84.492 102.13 84.7292 101.271Z" fill="#3E3832"/>
    <path d="M87.6636 100.997C87.8276 100.775 88.1407 100.728 88.3628 100.892C88.585 101.056 88.6322 101.369 88.4681 101.591C88.2444 101.894 88.278 102.077 88.674 102.855C89.0762 103.644 88.9406 104.423 88.2991 105.074C88.1053 105.271 87.7887 105.274 87.592 105.08C87.3952 104.886 87.3928 104.569 87.5866 104.373C87.9313 104.023 87.9862 103.707 87.783 103.309C87.2261 102.216 87.1342 101.714 87.6636 100.997Z" fill="#3E3832"/>
    <path d="M90.5379 100.975C90.7625 100.814 91.0748 100.866 91.2354 101.091C91.3961 101.315 91.3442 101.628 91.1195 101.788C90.8131 102.007 90.7884 102.192 90.9248 103.054C91.0634 103.929 90.6936 104.628 89.8822 105.049C89.6372 105.176 89.3353 105.081 89.2081 104.836C89.0809 104.591 89.1764 104.289 89.4215 104.162C89.8575 103.935 90.0071 103.652 89.9371 103.21C89.7452 101.999 89.8128 101.493 90.5379 100.975Z" fill="#3E3832"/>
    <path fill-rule="evenodd" clip-rule="evenodd" d="M101.625 140H74.3746C74.1905 139.276 74.0716 138.529 74.0238 137.765L74 114.059C74 101.949 83.8487 98 88 98C92.1513 98 102 102.099 102 113.962V137.765C101.928 138.529 101.809 139.276 101.625 140ZM76.0228 111.255C75.4124 111.597 75 112.25 75 113V115C75 116.105 75.8954 117 77 117C77.0292 117 77.0583 116.999 77.0872 116.998C78.4358 119.938 80.9373 122.239 84.0127 123.322C84.1766 125.38 85.8991 127 88 127C90.1009 127 91.8234 125.38 91.9873 123.322C95.0627 122.239 97.5642 119.938 98.9128 116.998C98.9417 116.999 98.9708 117 99 117C100.105 117 101 116.105 101 115V113C101 112.25 100.588 111.597 99.9772 111.255C99.5923 104.974 94.3771 100 88 100C81.6229 100 76.4077 104.974 76.0228 111.255Z" fill="#78706A"/>
    <path fill-rule="evenodd" clip-rule="evenodd" d="M83 123.186C83.4085 123.829 85.244 127.029 87.9506 129C90.6388 127.059 93 123.619 93 123.02C92.7259 122.866 92.4532 123.641 92.1826 123.519C90.8441 124.64 87.0709 125.817 83.5 123.519C83.0797 123.727 83 123.186 83 123.186Z" fill="#59514B"/>
    <path fill-rule="evenodd" clip-rule="evenodd" d="M82.2351 123.076C82.0009 123.222 81.9297 123.531 82.0761 123.765C83.617 126.231 85.4668 128.411 87.6248 130.304C89.7704 132.187 91.3049 133.393 92.252 133.934C92.2656 133.942 92.2794 133.949 92.2934 133.955C90.2304 136.206 88.214 137.911 86.2464 139.069C86.0084 139.209 85.9291 139.516 86.0692 139.754C86.2093 139.992 86.5158 140.071 86.7538 139.931C91.2981 137.255 96.0151 131.864 100.928 123.759C101.071 123.523 100.995 123.216 100.759 123.072C100.523 122.929 100.216 123.005 100.072 123.241C97.6353 127.262 95.2536 130.597 92.9303 133.245C92.8876 133.173 92.8261 133.111 92.7481 133.066C91.877 132.568 90.3813 131.393 88.2844 129.553C86.2 127.724 84.4135 125.618 82.9241 123.235C82.7777 123.001 82.4692 122.93 82.2351 123.076Z" fill="#B7B1A9"/>
</svg>
